<?xml version="1.0" encoding="UTF-8"?>
<svg id="Layer_1" data-name="Layer 1" xmlns="http://www.w3.org/2000/svg" xmlns:xlink="http://www.w3.org/1999/xlink" viewBox="0 0 500 500">
  <defs>
    <style>
      .cls-1 {
        fill: url(#linear-gradient-2);
      }

      .cls-2 {
        fill: #fff;
      }

      .cls-3 {
        fill: #00a651;
      }

      .cls-4 {
        fill: #006838;
      }

      .cls-5 {
        fill: #dbdbdb;
      }

      .cls-6 {
        fill: url(#linear-gradient);
      }
    </style>
    <linearGradient id="linear-gradient" x1="99.05" y1="109.58" x2="438.03" y2="404.35" gradientUnits="userSpaceOnUse">
      <stop offset="0" stop-color="#006838"/>
      <stop offset="1" stop-color="#00a651"/>
    </linearGradient>
    <linearGradient id="linear-gradient-2" x1="208.76" y1="274.26" x2="296.57" y2="350.61" xlink:href="#linear-gradient"/>
  </defs>
  <rect class="cls-2" x="8.29" y="8.29" width="483.41" height="483.41" rx="19.76" ry="19.76"/>
  <g>
    <g>
      <path class="cls-6" d="M248.33,387.27c-41.83,0-81.77-3.57-115.5-10.31-29.94-6.21-51.55-10.69-60.36-40.27-6.35-21.69-12.69-45.89-19.38-74.01l-2.4-9.38c-5.01-19.63-10.2-39.92-15.75-59.12-2.6-10.4-1.08-20.34,4.37-28.82,11.11-17.28,33.8-27.98,51.36-30.91l.37-.03h3.52c1.85,0,2.83.92,3.22,1.87.95,1.53,1.8,3.77,2.7,6.13.28.72.55,1.45.83,2.14.62,1.25,1.07,2.47,1.51,3.65.43,1.15.84,2.24,1.37,3.31,1.39,2.77,3.61,2.85,3.86,2.85h2.24l1.11-1.84c16.21-25.05,29.96-38.04,42.07-39.77l.32-.02h191.34c15.04,1.21,29.36,20.43,35.48,28.64l.74,1,.21.34c.2.4.57.89.95,1.4.48.64.97,1.29,1.35,2.03.3.5.59.99.87,1.46,1.29,2.2,2.31,3.93,4.04,5.65l4.09,4.46,8.65-21.88.5-.76c.85-.85,2.06-1.27,3.69-1.27,1.97,0,4.7.6,8.58,1.9l.76.47s.07,0,.11,0c.06,0,.12,0,.18,0l1.59.66.19.19c15.81,4.83,50.91,19.04,49.14,49.62l-.06.39c-6,25.4-12.77,51.32-19.32,76.4-1.79,6.84-3.57,13.65-5.32,20.4-1.98,7.69-4.12,15.65-6.18,23.34-2.84,10.59-5.77,21.54-8.48,32.35l-.06.19c-9.76,28.05-36.38,33.04-64.56,38.32l-.48.09-.42.04h-.98c-34.08,5.95-72.82,9.1-112.07,9.1Z"/>
      <path class="cls-3" d="M344.96,114.98c14.66,1.17,29.32,21.69,34.6,28.73.59,1.17,1.76,2.34,2.34,3.52,1.76,2.93,2.94,5.28,5.29,7.62l6.45,7.04,9.97-25.22c.41-.41,1.12-.61,2.1-.61,1.78,0,4.46.65,7.87,1.79.59.59,1.17.59,1.76.59l.59.59c11.73,3.52,49.85,17,48.09,47.5-7.62,32.25-16.42,65.09-24.63,96.75-4.69,18.18-9.97,36.95-14.66,55.71-9.38,26.97-35.18,31.66-63.33,36.94h-1.17c-34.39,6.02-73.24,9.1-111.87,9.1s-80.58-3.37-115.06-10.27c-31.08-6.45-50.44-11.14-58.64-38.7-7.04-24.04-13.49-49.26-19.35-73.88-5.86-22.87-11.73-46.32-18.18-68.61-2.34-9.38-1.17-18.77,4.11-26.98,10.55-16.42,32.26-26.97,49.84-29.91h3.52c1.17,0,1.17.59,1.17.59,1.17,1.76,2.35,5.29,3.52,8.21,1.17,2.35,1.76,4.69,2.93,7.04,1.77,3.51,4.69,4.1,5.87,4.1h3.51l1.77-2.93c19.35-29.91,32.25-37.53,40.46-38.7h191.16M397.35,214.07c-.25.04-.5.08-.75.11.25-.04.5-.08.75-.11.51-.08,1.03-.15,1.54-.23-.51.08-1.03.15-1.54.23M384.84,215.98c2.66-.4,5.32-.81,7.98-1.22-2.67.41-5.33.82-7.98,1.22M106.65,215.48c.42.07.84.14,1.26.21-.42-.07-.84-.14-1.26-.21-.26-.04-.51-.08-.77-.13.26.04.51.08.77.13M383.37,216.2c-.58.09-1.16.17-1.74.25-1.31.19-2.63.37-3.94.54,1.32-.17,2.63-.36,3.94-.54.58-.08,1.16-.17,1.74-.25M114.49,216.67c.58.08,1.15.17,1.73.25-.58-.08-1.16-.16-1.73-.25-.92-.13-1.84-.27-2.75-.41.92.14,1.83.28,2.75.41M122.09,217.68c.74.1,1.48.19,2.22.28-.74-.09-1.48-.18-2.22-.28-.74-.1-1.48-.19-2.22-.29.74.1,1.48.19,2.22.29M367.23,218.19c1.61-.15,3.22-.31,4.81-.49-1.6.18-3.2.34-4.81.49M132.06,218.79c1.18.12,2.36.24,3.54.35-1.18-.11-2.36-.23-3.54-.35-1.29-.13-2.57-.27-3.85-.41,1.28.14,2.57.28,3.85.41M143.01,219.79c.48.04.96.07,1.44.11-.48-.04-.96-.07-1.44-.11-.83-.06-1.67-.13-2.5-.2.83.07,1.66.13,2.5.2M150.96,220.37c.65.04,1.3.08,1.95.12-.65-.04-1.3-.08-1.95-.12-.68-.04-1.37-.09-2.05-.14.68.05,1.36.09,2.05.14M160.04,220.91c.44.02.89.05,1.33.07-.44-.02-.89-.05-1.33-.07-.89-.05-1.78-.09-2.67-.14.89.05,1.78.1,2.67.14M167.19,221.26c.89.04,1.77.07,2.66.11-.89-.04-1.77-.07-2.66-.11-.44-.02-.89-.04-1.33-.06.44.02.89.04,1.33.06M177.7,221.65c.21,0,.42.01.63.02-.21,0-.42-.01-.63-.02-1.11-.03-2.22-.07-3.33-.11,1.11.04,2.22.08,3.33.11M184.85,221.86c.65.02,1.3.03,1.95.05-.65-.01-1.3-.03-1.95-.05-.65-.02-1.3-.03-1.95-.05.65.02,1.3.03,1.95.05M194.85,222.06c.13,0,.26,0,.4,0-.13,0-.26,0-.4,0-1.14-.02-2.28-.04-3.42-.06,1.14.02,2.28.04,3.42.06M201.67,222.15c.66,0,1.32.02,1.98.02-.66,0-1.32-.01-1.98-.02-.57,0-1.13-.01-1.7-.02.57,0,1.13.01,1.7.02M212,222.24c-1.16,0-2.32-.02-3.49-.03,1.16,0,2.33.02,3.49.03M218.56,222.27c.57,0,1.14,0,1.71,0-.57,0-1.14,0-1.71,0-.47,0-.93,0-1.4,0,.47,0,.93,0,1.4,0M227.19,222.29c.45,0,.89,0,1.34,0-.44,0-.89,0-1.34,0-.42,0-.83,0-1.25,0,.42,0,.83,0,1.25,0M344.96,110.48h-191.16l-.64.05c-12.79,1.82-27.06,15.14-43.6,40.71l-.08.12-.45.75h-.97c-.16,0-1.1-.14-1.85-1.62-.47-.95-.86-1.98-1.27-3.08-.45-1.21-.92-2.45-1.56-3.77-.26-.66-.52-1.34-.78-2.02-.91-2.38-1.77-4.64-2.78-6.34-.77-1.71-2.55-3.11-5.24-3.11h-3.52l-.74.06c-18.05,3.01-41.4,14.05-52.89,31.91-5.8,9.02-7.42,19.57-4.69,30.5l.04.16c5.55,19.17,10.73,39.45,15.74,59.06.8,3.13,1.6,6.26,2.4,9.38,6.7,28.13,13.04,52.36,19.4,74.07,9.19,30.88,32.52,35.72,62.05,41.85,33.9,6.78,73.99,10.36,115.97,10.36,39.3,0,78.11-3.15,112.26-9.1h.78l.83-.08.48-.09c14.36-2.69,27.93-5.23,39.5-10.69,13.4-6.31,22.15-15.83,26.77-29.11l.12-.39c2.7-10.8,5.63-21.74,8.47-32.32,2.06-7.7,4.2-15.66,6.18-23.36,1.75-6.74,3.52-13.53,5.31-20.37,6.56-25.09,13.34-51.04,19.34-76.47l.11-.78c.84-14.48-6.38-27.55-20.88-37.8-10.99-7.77-23.77-12.28-30.41-14.27h0s-.8-.33-.8-.33c.12.08.24.18.35.29l-.69-.43-.67-.28c.12.02.26.06.4.11l-.79-.49c-4.12-1.38-7.08-2.02-9.3-2.02s-4,.65-5.28,1.93l-1,1.53-7.32,18.53-1.59-1.73-.14-.15c-1.52-1.52-2.43-3.06-3.69-5.2-.27-.46-.55-.93-.84-1.42-.46-.88-1.02-1.62-1.51-2.28-.28-.38-.63-.84-.74-1.06l-.42-.69-.74-.99c-6.3-8.45-21.05-28.25-37.1-29.53h-.36Z"/>
    </g>
    <path class="cls-4" d="M415.91,139.02l-.59-.59c-.59,0-1.17,0-1.76-.59-5.28-1.76-8.8-2.35-9.97-1.18l-9.97,25.22-6.45-7.04c-2.35-2.34-3.52-4.69-5.29-7.62-.59-1.18-1.76-2.35-2.34-3.52-5.28-7.04-19.94-27.56-34.6-28.73h-191.16c-8.21,1.17-21.11,8.8-40.46,38.7l-1.76,2.93h-3.51c-1.18,0-4.11-.59-5.87-4.1-1.17-2.35-1.76-4.69-2.93-7.04-1.17-2.93-2.35-6.45-3.52-8.21,0,0,0-.59-1.17-.59h-3.52c-17.59,2.94-39.29,13.49-49.84,29.91-5.28,8.21-6.45,17.6-4.11,26.98,6.45,22.29,12.32,45.74,18.18,68.61,5.86,24.63,12.31,49.84,19.35,73.88,8.2,27.56,27.55,32.26,58.64,38.7,67.44,13.49,156.57,13.49,226.93,1.17h1.17c28.15-5.28,53.95-9.97,63.33-36.94,4.69-18.77,9.97-37.53,14.66-55.71,8.21-31.66,17.01-64.5,24.63-96.75,1.76-30.5-36.35-43.98-48.09-47.5ZM124.47,154.27l.59-.59c5.86-8.8,19.35-27.56,30.49-28.15h186.47c9.38.59,19.35,12.9,24.63,19.94,11.15,14.07,21.12,31.67,29.32,47.5,3.52,6.45,7.04,12.89,9.38,19.94-12.9,1.76-25.21,4.11-38.12,5.28-43.39,4.69-86.78,4.11-130.76,4.11s-94.41,0-137.8-8.21c-1.18,0-7.04-1.17-7.04-1.76,9.97-19.94,19.94-39.87,32.84-58.05ZM414.73,335.47h-.59c-7.62,24.04-41.04,27.56-62.75,31.08-65.67,11.15-150.7,10.55-215.79-2.34-18.77-3.52-42.21-7.04-49.84-26.98l-31.66-120.21c2.93,0,5.28,1.76,8.2,2.93,40.47,14.66,95.59,16.42,138.98,17.01,41.04.59,83.27,1.17,124.9-.59,34.01-1.76,73.88-4.11,106.14-14.07,4.69-1.76,8.8-3.52,13.49-5.28l-31.08,118.45Z"/>
    <path class="cls-2" d="M445.82,217.02l-31.08,118.45h-.59c-7.62,24.04-41.04,27.56-62.75,31.08-65.67,11.15-150.7,10.55-215.79-2.34-18.77-3.52-42.21-7.04-49.84-26.98l-31.66-120.21c2.93,0,5.28,1.76,8.2,2.93,40.47,14.66,95.59,16.42,138.98,17.01,41.04.59,83.27,1.17,124.9-.59,34.01-1.76,73.88-4.11,106.14-14.07,4.69-1.76,8.8-3.52,13.49-5.28Z"/>
    <path class="cls-5" d="M115.21,305.78c-.95-3.8-4.42-17.99-7.29-37.2-1.23-8.24-2.4-17.7-3.25-28.23-.46-5.71-4.54-10.47-10.1-11.85-3.22-.8-5.97-1.61-8.2-2.32,0,0-25.51-8.15-29.7-8.78-.04,0-2.55-.39-2.55-.39h0c10.47,39.79,20.94,79.58,31.41,119.37,6.33,19.46,21.18,21.65,33.12,24.1,5.2,1.15,10.57,2.09,16.08,2.83-7.77-17.9-14.4-37.01-19.51-57.53Z"/>
    <path class="cls-5" d="M405.35,212.91c-9.66,1.31-19.01,2.96-28.51,4.21-3.18.41-6.38.77-9.61,1.07-43.39,4.69-86.78,4.11-130.76,4.11-41.06,0-86.61,0-127.45-6.43-3.48-.54-6.93-1.13-10.35-1.78-1.18,0-7.04-1.17-7.04-1.76,9.97-19.94,19.94-39.87,32.84-58.05l.59-.59c5.86-8.8,19.35-27.56,30.49-28.15h186.47c9.38.59,19.35,12.9,24.63,19.94,11.15,14.07,21.12,31.67,29.32,47.5,3.52,6.45,7.04,12.89,9.38,19.94Z"/>
    <path class="cls-2" d="M386.88,204.13c1.08,2.55-.59,5.41-3.33,5.76-40.88,5.18-88.56,8.78-141.7,8.29-47.53-.44-90.48-4.05-127.91-9-2.59-.34-4.26-2.95-3.43-5.43,3.93-11.85,10.57-26.58,22.12-41.61,3.4-4.42,6.88-8.43,10.33-12.04,3.68-3.86,9.64-5.28,15-3.64,5.47,1.68,11.94,3.54,19.22,5.41,21.53,5.53,40.89,10.49,65.63,11.55,36.24,1.55,65.56-6.08,83.48-10.88,4.36-1.17,8.32-2.33,11.8-3.41,5.39-1.67,11.4-.25,15.08,3.65,4.38,4.65,8.86,9.9,13.24,15.77,9.54,12.79,16.01,25.08,20.47,35.58Z"/>
    <g>
      <path class="cls-1" d="M235.5,365.42c-4.44,0-8.05-3.61-8.05-8.06v-29.99h-29.99c-4.44,0-8.06-3.61-8.06-8.06v-23.33c0-4.44,3.61-8.06,8.06-8.06h29.99v-29.99c0-4.44,3.61-8.06,8.05-8.06h23.33c4.44,0,8.06,3.61,8.06,8.06v29.99h29.99c4.44,0,8.05,3.61,8.05,8.06v23.33c0,4.44-3.61,8.06-8.05,8.06h-29.99v29.99c0,4.44-3.61,8.06-8.06,8.06h-23.33Z"/>
      <path class="cls-4" d="M258.83,254.39c1.96,0,3.55,1.59,3.55,3.55v34.49h34.49c1.96,0,3.55,1.59,3.55,3.55v23.33c0,1.96-1.59,3.55-3.55,3.55h-34.49v34.49c0,1.96-1.59,3.55-3.55,3.55h-23.33c-1.96,0-3.55-1.59-3.55-3.55v-34.49h-34.49c-1.96,0-3.55-1.59-3.55-3.55v-23.33c0-1.96,1.59-3.55,3.55-3.55h34.49v-34.49c0-1.96,1.59-3.55,3.55-3.55h23.33M258.83,245.38h-23.33c-6.92,0-12.56,5.63-12.56,12.56v25.49h-25.49c-6.92,0-12.56,5.63-12.56,12.56v23.33c0,6.92,5.63,12.56,12.56,12.56h25.49v25.49c0,6.92,5.63,12.56,12.56,12.56h23.33c6.92,0,12.56-5.63,12.56-12.56v-25.49h25.49c6.92,0,12.56-5.63,12.56-12.56v-23.33c0-6.92-5.63-12.56-12.56-12.56h-25.49v-25.49c0-6.92-5.63-12.56-12.56-12.56h0Z"/>
    </g>
  </g>
</svg>